# xmcd
#
# Track frame offsets: 
#        150
#        15450
#        29244
#        46045
#        64186
#        77614
#        101686
#        117295
#        145788
#        154554
#        173613
#        186748
#        200681
#        215078
#        244763
#        258879
#        283702
#
# Disc length: 3898 seconds
#
# Revision: 0
# Processed by: cddbd v1.5.2PL0 Copyright (c) Steve Scherf et al.
# Submitted via: ExactAudioCopy v0.95b4
#
DISCID=f30f3811
DTITLE=The Rudy "Boy" Experiment - The Rudy "Boy" Experiment
DYEAR=2006
DGENRE=Blues
TTITLE0=Tourque
TTITLE1=You Need
TTITLE2=Put Your Worry Away
TTITLE3=Chicano Way
TTITLE4=Los Marijuanos
TTITLE5=Rio Grande Blues
TTITLE6=Burning Hearts
TTITLE7=What Am I Supposed To Do?
TTITLE8=Gasoline
TTITLE9=All Right!
TTITLE10=St. Peter's Day Off
TTITLE11=Mary Jane
TTITLE12=Killin' Me Slow
TTITLE13=Me
TTITLE14=Playa'
TTITLE15=Living in Los Lunas
TTITLE16=Cascade
EXTD=
EXTT0=
EXTT1=
EXTT2=
EXTT3=
EXTT4=
EXTT5=
EXTT6=
EXTT7=
EXTT8=
EXTT9=
EXTT10=
EXTT11=
EXTT12=
EXTT13=
EXTT14=
EXTT15=
EXTT16=
PLAYORDER=
